<?xml version="1.0" encoding="utf-8"?>
<!-- Generator: Adobe Illustrator 17.1.0, SVG Export Plug-In . SVG Version: 6.00 Build 0)  -->
<svg version="1.2" baseProfile="tiny" xmlns="http://www.w3.org/2000/svg" xmlns:xlink="http://www.w3.org/1999/xlink" x="0px"
	 y="0px" viewBox="0 0 186 36" xml:space="preserve">
<g id="Layer_1" display="none">
	<rect x="-1.5" y="-7.8" display="inline" fill="#009444" width="188.5" height="57.6"/>
</g>
<g id="Layer_2">
	<g>
		<path fill="#FFFFFF" d="M15,23.7l9.9-11.3H19c-0.2,0.1-0.3,0.2-0.4,0.3c-0.1,0.2-0.1,0.4-0.1,0.8h-3V9h16v3.5l-9.9,11.3H28
			c0.2-0.1,0.3-0.2,0.4-0.3c0.1-0.1,0.1-0.4,0.1-0.8h3v4.8H15V23.7z"/>
		<path fill="#FFFFFF" d="M41,27.7c-0.5,0-1,0-1.5-0.1c-0.6,0-1.1-0.1-1.7-0.3c-0.6-0.1-1.1-0.4-1.6-0.6s-1-0.6-1.4-1.1
			c-0.4-0.4-0.7-1-1-1.6c-0.2-0.6-0.4-1.4-0.4-2.3v-3.3c0-1.3,0.2-2.4,0.7-3.1c0.5-0.8,1.1-1.3,1.8-1.7c0.7-0.4,1.5-0.6,2.3-0.7
			c0.8-0.1,1.5-0.1,2.2-0.1c0.4,0,0.9,0,1.3,0.1c0.5,0,0.9,0.1,1.4,0.3c0.4,0.1,0.9,0.3,1.3,0.6c0.4,0.3,0.8,0.6,1.1,1.1
			c0.3,0.5,0.6,1,0.7,1.7s0.3,1.4,0.3,2.4c0,0.5,0,1-0.1,1.5c0,0.5-0.1,0.9-0.2,1.4h-8.4c0.1,0.5,0.2,0.9,0.5,1.3
			c0.2,0.3,0.5,0.6,0.8,0.7c0.3,0.2,0.6,0.3,0.9,0.3c0.3,0.1,0.5,0.1,0.7,0.1c1,0,1.8,0,2.5-0.1S44.4,24,45,24l1.1,2.8
			c-0.4,0.2-0.8,0.4-1.3,0.5s-0.9,0.2-1.4,0.3c-0.5,0.1-0.9,0.1-1.4,0.1C41.7,27.7,41.3,27.7,41,27.7z M40,16.1
			c-0.3,0-0.6,0-0.8,0.1c-0.3,0.1-0.5,0.2-0.7,0.4c-0.2,0.2-0.4,0.5-0.5,0.9c-0.1,0.4-0.2,0.9-0.2,1.5h3.9c0.2-0.1,0.3-0.1,0.3-0.3
			c0-0.1,0.1-0.3,0.1-0.6c-0.1-0.7-0.3-1.2-0.6-1.5C41,16.3,40.6,16.1,40,16.1z"/>
		<path fill="#FFFFFF" d="M57.4,20.9c0-1,0-1.7-0.1-2.3c-0.1-0.6-0.2-1-0.3-1.4c-0.1-0.3-0.3-0.5-0.6-0.6c-0.2-0.1-0.6-0.2-0.9-0.2
			c-0.2,0-0.4,0-0.6,0.1c-0.2,0.1-0.4,0.1-0.5,0.2L53.9,17v10.5h-4.7v-9.7c0-0.1,0-0.3,0-0.5c0-0.2,0-0.3-0.1-0.5
			c-0.1-0.1-0.2-0.3-0.3-0.4c-0.1-0.1-0.3-0.1-0.6-0.1c-0.2,0-0.3,0-0.4,0c-0.1,0-0.1,0-0.1,0l-0.2-2.8c0.2-0.1,0.5-0.3,0.8-0.4
			s0.6-0.2,1-0.2c0.7,0,1.2,0,1.6,0.1c0.4,0.1,0.8,0.3,1.1,0.5c0.7-0.4,1.4-0.6,2-0.8c0.6-0.1,1.3-0.2,2.2-0.2c1.3,0,2.3,0.2,3,0.7
			c0.7,0.5,1.3,1,1.7,1.6c0.4,0.6,0.6,1.2,0.8,1.9c0.1,0.6,0.2,1.1,0.2,1.4v1.6c0,0.4,0,0.8,0,1.2c0,0.4,0,0.8,0,1.2
			c0,0.4,0,0.7,0.1,1S62,23.9,62,24c0.1,0.1,0.1,0.2,0.2,0.2c0.1,0,0.2,0.1,0.3,0.1c0.2,0,0.4,0,0.5-0.1l0.3-0.1l0.2,2.9
			c-0.2,0.1-0.5,0.3-0.8,0.4c-0.3,0.1-0.6,0.2-1,0.2c-0.8,0-1.5,0-2-0.1c-0.6-0.1-1-0.3-1.4-0.5c-0.4-0.3-0.6-0.7-0.8-1.2
			c-0.2-0.5-0.2-1.3-0.2-2.2V20.9z"/>
		<path fill="#FFFFFF" d="M71.1,8.8l0,4.3h2.7v3.5h-2.7v6.2c0,0.2,0,0.3,0,0.5c0,0.2,0,0.3,0.1,0.5c0.1,0.1,0.1,0.3,0.2,0.4
			c0.1,0.1,0.3,0.1,0.5,0.1c0.2,0,0.4,0,0.6-0.1c0.2,0,0.4-0.1,0.6-0.1l0.6-0.2l0.4,3.2c-0.1,0-0.3,0.1-0.5,0.2
			c-0.2,0.1-0.5,0.1-0.8,0.2c-0.3,0.1-0.7,0.1-1,0.2c-0.4,0.1-0.8,0.1-1.1,0.1c-0.6,0-1.2-0.1-1.7-0.2s-1-0.4-1.3-0.7
			c-0.4-0.3-0.7-0.7-0.9-1.2c-0.2-0.5-0.3-1-0.3-1.6v-7.3h-1.8v-3.5h1.3c0.2,0,0.3-0.1,0.5-0.2c0.1-0.1,0.3-0.4,0.4-0.7
			s0.2-0.7,0.3-1.3c0.1-0.5,0.1-1.2,0.1-2L71.1,8.8z"/>
		<path fill="#FFFFFF" d="M81.6,13.1v14.3h-4.7V16.6h-1.1v-3.5H81.6z M76,9.7c0-0.8,0.3-1.5,0.8-1.8c0.5-0.4,1.2-0.5,2-0.5
			c0.4,0,0.7,0,1.1,0.1c0.3,0.1,0.6,0.2,0.9,0.4C81,8,81.2,8.2,81.4,8.5c0.1,0.3,0.2,0.7,0.2,1.1c0,0.5-0.1,0.8-0.2,1.1
			c-0.1,0.3-0.3,0.5-0.6,0.7c-0.3,0.2-0.6,0.3-0.9,0.4C79.5,12,79.1,12,78.8,12c-0.4,0-0.8,0-1.1-0.1c-0.3-0.1-0.6-0.2-0.9-0.4
			c-0.3-0.2-0.5-0.4-0.6-0.7C76,10.5,76,10.1,76,9.7z"/>
		<path fill="#FFFFFF" d="M104.1,24.1c0.1,0.1,0.1,0.2,0.2,0.2c0.1,0,0.2,0.1,0.3,0.1c0.2,0,0.4,0,0.5-0.1l0.3-0.1l0.2,2.9
			c-0.2,0.1-0.5,0.3-0.8,0.4c-0.3,0.1-0.6,0.2-1,0.2c-0.7,0-1.3,0-1.7-0.1c-0.4-0.1-0.8-0.2-1-0.4c-0.4,0.1-0.7,0.2-1,0.3
			c-0.3,0.1-0.6,0.2-0.9,0.2c-0.3,0.1-0.6,0.1-1,0.1c-0.4,0-0.8,0-1.2,0c-0.6,0-1.1-0.1-1.8-0.2s-1.2-0.4-1.7-0.7
			c-0.5-0.4-1-0.9-1.3-1.6c-0.4-0.7-0.5-1.6-0.5-2.7c0-1,0.2-1.7,0.6-2.3c0.4-0.6,0.9-1.1,1.5-1.4c0.6-0.3,1.3-0.5,2-0.7
			c0.7-0.1,1.4-0.2,2.1-0.2c0.6,0,1.1,0,1.6,0.1c0-0.3,0-0.5-0.1-0.7c0-0.2-0.1-0.4-0.3-0.5c-0.1-0.1-0.3-0.2-0.6-0.3
			c-0.3-0.1-0.6-0.1-1-0.1c-0.4,0-0.9,0-1.4,0.1c-0.5,0.1-0.9,0.1-1.3,0.2L93.3,17L92.4,14c0.5-0.3,1.3-0.5,2.3-0.8
			c1-0.3,2.4-0.4,4.1-0.4c0.8,0,1.5,0.1,2.1,0.4c0.6,0.2,1.1,0.5,1.4,0.9c0.4,0.4,0.7,0.8,0.9,1.2s0.4,0.9,0.5,1.3
			c0.1,0.4,0.2,0.8,0.2,1.2c0,0.4,0,0.6,0,0.9v1.6c0,0.4,0,0.8,0,1.2c0,0.4,0,0.8,0,1.2c0,0.4,0,0.7,0.1,1
			C104,23.8,104.1,24,104.1,24.1z M99.5,21c-0.2,0-0.4,0-0.6-0.1s-0.4,0-0.6,0c-0.2,0-0.5,0-0.7,0.1c-0.3,0-0.5,0.1-0.7,0.3
			s-0.4,0.3-0.5,0.5c-0.1,0.2-0.2,0.5-0.2,0.9c0,0.3,0.1,0.5,0.2,0.7c0.1,0.2,0.3,0.3,0.5,0.5c0.2,0.1,0.4,0.2,0.6,0.2
			c0.2,0,0.5,0.1,0.7,0.1c0.2,0,0.5,0,0.7-0.1c0.3-0.1,0.5-0.1,0.7-0.1V21z"/>
		<path fill="#FFFFFF" d="M114.3,10.9V7.4h5.8v15.4c0,0.4,0.1,0.7,0.2,1c0.1,0.3,0.4,0.4,0.8,0.4c0.1,0,0.2,0,0.3,0
			c0.1,0,0.2,0,0.2-0.1l0.2,2.8l-0.6,0.3c-0.4,0.2-0.8,0.3-1.2,0.3c-0.6,0-1.1,0-1.5-0.1c-0.4-0.1-0.8-0.2-1.2-0.5l-0.4,0.2
			c-0.5,0.2-1.1,0.4-1.9,0.5c-0.8,0.1-1.5,0.2-2.2,0.2c-0.6,0-1.2-0.1-1.9-0.2c-0.7-0.1-1.3-0.4-1.8-0.9c-0.6-0.5-1-1.1-1.4-1.9
			c-0.4-0.8-0.5-1.9-0.5-3.2v-2.7c0-1.2,0.2-2.3,0.5-3c0.4-0.8,0.8-1.4,1.4-1.8c0.5-0.4,1.1-0.7,1.8-0.9c0.7-0.2,1.3-0.2,1.9-0.2
			c0.3,0,0.6,0,0.9,0c0.3,0,0.6,0.1,0.9,0.1c0.3,0,0.5,0.1,0.7,0.1c0.2,0,0.3,0.1,0.3,0.1v-2.4H114.3z M115.4,16.9l-0.5-0.1
			c-0.4-0.1-0.8-0.1-1.1-0.1c-0.4,0-0.7,0-0.9,0.1c-0.3,0.1-0.5,0.2-0.6,0.5c-0.2,0.3-0.3,0.6-0.4,1.1c-0.1,0.5-0.1,1.1-0.1,1.9
			c0,0.8,0,1.5,0.1,2c0.1,0.5,0.2,0.9,0.3,1.2c0.1,0.3,0.3,0.5,0.6,0.6c0.2,0.1,0.6,0.1,0.9,0.1c0.4,0,0.8-0.1,1.1-0.2
			c0.3-0.1,0.6-0.2,0.8-0.4V16.9z"/>
		<path fill="#FFFFFF" d="M139.8,20.2c0-0.9,0-1.6-0.1-2.1s-0.1-0.9-0.2-1.1c-0.1-0.3-0.3-0.4-0.5-0.5c-0.2-0.1-0.4-0.1-0.8-0.1
			c-0.2,0-0.4,0.1-0.6,0.1c-0.2,0.1-0.4,0.1-0.5,0.2l-0.5,0.2v10.5h-4.5v-9.9c0-0.3-0.1-0.6-0.4-0.8c-0.3-0.2-0.6-0.3-0.9-0.3
			c-0.2,0-0.4,0-0.6,0.1c-0.2,0.1-0.4,0.1-0.5,0.2l-0.5,0.2v10.5h-4.7v-9.7c0-0.1,0-0.3,0-0.5c0-0.2,0-0.3-0.1-0.5
			c-0.1-0.1-0.2-0.3-0.3-0.4c-0.1-0.1-0.3-0.1-0.6-0.1c-0.2,0-0.3,0-0.4,0c-0.1,0-0.1,0-0.1,0l-0.2-2.8c0.2-0.1,0.5-0.3,0.8-0.4
			c0.3-0.1,0.6-0.2,1-0.2c0.7,0,1.2,0,1.6,0.1c0.4,0.1,0.8,0.3,1.1,0.5c0.6-0.3,1.2-0.5,1.9-0.7c0.7-0.2,1.4-0.2,2.2-0.2
			c0.5,0,1.1,0.1,1.7,0.2c0.6,0.1,1.1,0.4,1.7,0.7c0.5-0.3,1.2-0.5,1.9-0.7c0.7-0.2,1.5-0.2,2.2-0.2c0.8,0,1.5,0.1,2.1,0.3
			c0.6,0.2,1.1,0.5,1.4,0.8c0.4,0.3,0.7,0.7,0.9,1.2c0.2,0.4,0.4,0.8,0.5,1.3s0.2,0.8,0.3,1.2c0,0.4,0.1,0.6,0.1,0.8V21
			c0,0.4,0,0.7,0,1.1c0,0.3,0,0.7,0,0.9s0,0.5,0.1,0.7c0,0.2,0.1,0.3,0.1,0.4c0.1,0.1,0.1,0.2,0.2,0.2c0.1,0,0.2,0.1,0.3,0.1
			c0.2,0,0.4,0,0.5-0.1l0.3-0.1l0.2,2.9c-0.2,0.1-0.5,0.3-0.9,0.4c-0.4,0.1-0.8,0.2-1.1,0.2c-0.8,0-1.4,0-2-0.1
			c-0.5-0.1-1-0.3-1.3-0.5c-0.3-0.3-0.5-0.7-0.7-1.2s-0.2-1.3-0.2-2.2V20.2z"/>
		<path fill="#FFFFFF" d="M153,13.1v14.3h-4.7V16.6h-1.1v-3.5H153z M147.4,9.7c0-0.8,0.3-1.5,0.8-1.8c0.5-0.4,1.2-0.5,2-0.5
			c0.4,0,0.7,0,1.1,0.1s0.6,0.2,0.9,0.4c0.3,0.2,0.5,0.4,0.6,0.7s0.2,0.7,0.2,1.1c0,0.5-0.1,0.8-0.2,1.1c-0.1,0.3-0.3,0.5-0.6,0.7
			c-0.3,0.2-0.6,0.3-0.9,0.4s-0.7,0.1-1.1,0.1c-0.4,0-0.8,0-1.1-0.1c-0.3-0.1-0.6-0.2-0.9-0.4c-0.3-0.2-0.5-0.4-0.6-0.7
			C147.4,10.5,147.4,10.1,147.4,9.7z"/>
		<path fill="#FFFFFF" d="M164.8,20.9c0-1,0-1.7-0.1-2.3c-0.1-0.6-0.2-1-0.3-1.4s-0.3-0.5-0.6-0.6c-0.2-0.1-0.6-0.2-0.9-0.2
			c-0.2,0-0.4,0-0.6,0.1c-0.2,0.1-0.4,0.1-0.5,0.2l-0.5,0.2v10.5h-4.7v-9.7c0-0.1,0-0.3,0-0.5c0-0.2,0-0.3-0.1-0.5
			c-0.1-0.1-0.2-0.3-0.3-0.4c-0.1-0.1-0.3-0.1-0.6-0.1c-0.2,0-0.3,0-0.4,0s-0.1,0-0.1,0l-0.2-2.8c0.2-0.1,0.5-0.3,0.8-0.4
			s0.6-0.2,1-0.2c0.7,0,1.2,0,1.6,0.1c0.4,0.1,0.8,0.3,1.1,0.5c0.7-0.4,1.4-0.6,2-0.8c0.6-0.1,1.3-0.2,2.2-0.2c1.3,0,2.3,0.2,3,0.7
			c0.7,0.5,1.3,1,1.7,1.6s0.6,1.2,0.8,1.9c0.1,0.6,0.2,1.1,0.2,1.4v1.6c0,0.4,0,0.8,0,1.2c0,0.4,0,0.8,0,1.2c0,0.4,0,0.7,0.1,1
			c0,0.3,0.1,0.5,0.1,0.5c0.1,0.1,0.1,0.2,0.2,0.2c0.1,0,0.2,0.1,0.3,0.1c0.2,0,0.4,0,0.5-0.1l0.3-0.1L171,27
			c-0.2,0.1-0.5,0.3-0.8,0.4c-0.3,0.1-0.6,0.2-1,0.2c-0.8,0-1.5,0-2-0.1s-1-0.3-1.4-0.5s-0.6-0.7-0.8-1.2s-0.2-1.3-0.2-2.2V20.9z"/>
	</g>
</g>
<g id="Layer_3">
</g>
</svg>
